<svg width="170" height="47" viewBox="0 0 170 47" fill="none" xmlns="http://www.w3.org/2000/svg">
<g clip-path="url(#clip0_219_106)">
<path d="M27.5329 32.842C25.8906 34.8858 23.5227 35.9914 20.5515 35.9914C14.4824 35.9914 10.9316 31.38 10.9316 23.5978C10.9316 15.8156 15.0213 11.1914 20.5515 11.1914C23.3187 11.1914 25.7253 12.3507 27.4385 14.4824C28.4668 11.0647 30.1284 8.08064 32.3847 5.64186C31.0902 4.5341 29.6454 3.62815 28.0804 2.92828C25.5815 1.81409 22.7713 1.2323 19.7529 1.2323C16.7344 1.2323 13.9243 1.81409 11.4254 2.92828C4.52764 6.00682 0 13.145 0 23.3101C0 37.1592 7.29274 45.3665 19.7529 45.3665C24.8752 45.3665 29.1237 43.9797 32.3525 41.3799C32.2194 41.2425 32.0928 41.1051 31.9661 40.9634C29.9867 38.7479 28.4969 36.0107 27.5329 32.842V32.842Z" fill="#072728"/>
<path d="M60.946 5.81146C59.5999 4.62856 58.0885 3.66249 56.4441 2.92828C53.943 1.81409 51.1328 1.2323 48.1144 1.2323C45.096 1.2323 42.2858 1.81409 39.7869 2.92828C37.5649 3.92011 35.592 5.33057 33.9325 7.1296C31.5646 9.69934 29.845 13.0591 28.9841 17.108C28.5762 19.0251 28.3615 21.0946 28.3615 23.3101C28.3615 25.7919 28.5955 28.0932 29.0528 30.1971C29.9137 34.173 31.5689 37.4512 33.9347 39.9286C37.3009 43.458 42.1055 45.3665 48.1144 45.3665C53.3612 45.3665 57.6914 43.911 60.946 41.191V17.8401C60.946 13.9672 61.6007 10.6203 62.906 7.82731C62.3006 7.0974 61.6458 6.42544 60.946 5.81146V5.81146ZM48.1144 35.4074C42.8204 35.4074 39.7203 30.9034 39.7203 23.3058C39.7203 15.7083 43.2905 11.1914 48.1144 11.1914C52.9383 11.1914 56.5106 15.7061 56.5106 23.3058C56.5106 30.9056 53.4106 35.4074 48.1144 35.4074V35.4074Z" fill="#072728"/>
<path d="M97.7555 8.50141C97.3282 9.52114 96.9847 10.6117 96.725 11.7689C96.3042 13.6194 96.0938 15.646 96.0938 17.8401V45.3666H87.6826V16.6743C87.6826 10.9423 83.1871 10.5087 81.3666 10.5087C80.3812 10.5087 78.6166 10.6353 77.1997 11.6594C75.9996 12.5267 75.0528 14.0423 75.0528 16.6743V45.3666H63.0929V17.8401C63.0929 14.652 63.5738 12.0286 64.3874 9.87537C64.6966 9.05314 65.0551 8.30175 65.4523 7.61048C66.6459 5.54309 68.1959 4.03173 69.8897 2.92826C71.5428 1.85271 73.3332 1.16572 75.0528 0.729919C75.7871 0.543145 76.5062 0.403602 77.1997 0.298408C78.8033 0.0558173 80.2567 0 81.3666 0C82.9574 0 85.2524 0.113781 87.6826 0.729919C89.4043 1.16572 91.1926 1.85271 92.8457 2.92826C94.0221 3.69468 95.1277 4.65645 96.0938 5.86511C96.7121 6.63797 97.2724 7.51387 97.7555 8.50141V8.50141Z" fill="#072728"/>
<path d="M134.79 42.7668V45.3666H122.83V16.6743C122.83 10.9423 118.337 10.5087 116.516 10.5087C115.531 10.5087 113.762 10.6353 112.347 11.6615C111.147 12.5288 110.201 14.0445 110.201 16.6743V45.3666H98.2406V17.8401C98.2406 15.5301 98.4918 13.5185 98.9426 11.7646C99.138 10.9917 99.3742 10.2704 99.6425 9.59628C99.7949 9.2163 99.9559 8.85134 100.128 8.50141C101.366 5.96816 103.11 4.18415 105.037 2.92826C106.693 1.85271 108.481 1.16572 110.201 0.729919C110.935 0.543145 111.654 0.403602 112.347 0.298408C113.951 0.0558173 115.407 0 116.516 0C118.107 0 120.4 0.113781 122.83 0.729919C124.55 1.16572 126.34 1.85271 127.993 2.92826C128.732 3.40915 129.442 3.96732 130.11 4.61781V28.66C130.11 32.7154 130.829 36.1911 132.257 39.0614C132.938 40.4353 133.783 41.6719 134.79 42.7668V42.7668Z" fill="#072728"/>
<path d="M157.486 39.8898C157.825 36.0857 161.101 33.1488 164.92 33.2089C165.367 33.2154 165.805 33.2626 166.228 33.3485C166.951 33.4902 167.636 33.7392 168.265 34.0784C168.615 32.4855 168.808 30.6886 168.808 28.662V2.92822H156.848V29.8256C156.848 35.5576 152.355 35.9912 150.535 35.9912C149.549 35.9912 147.785 35.8645 146.368 34.8405C145.168 33.9732 144.221 32.4576 144.221 29.8256V2.92822H132.259V28.6599C132.259 33.2347 133.248 36.6438 134.792 39.1792C136.836 42.5411 139.854 44.3745 142.832 45.3663C143.298 45.5209 143.761 45.654 144.221 45.7699C144.955 45.9567 145.674 46.0962 146.368 46.2014C147.971 46.444 149.425 46.4998 150.535 46.4998C152.125 46.4998 154.418 46.386 156.848 45.7699C157.308 45.654 157.772 45.5209 158.237 45.3663C158.499 45.2783 158.761 45.1838 159.025 45.0829C158.585 44.5248 158.227 43.9022 157.965 43.2324C157.563 42.2084 157.383 41.0748 157.488 39.8898H157.486Z" fill="#072728"/>
<path d="M169.306 37.96C169.163 37.7045 168.993 37.4641 168.806 37.2387C168.48 36.8415 168.093 36.4959 167.662 36.2103C167.072 35.8196 166.395 35.547 165.67 35.4268C165.569 35.4096 165.468 35.3946 165.365 35.3838C162.729 35.0962 160.247 36.8608 159.714 39.4585C159.504 40.4825 159.599 41.4829 159.927 42.3631C160.176 43.0351 160.56 43.6383 161.045 44.145C161.546 44.6688 162.153 45.0874 162.834 45.3665C162.907 45.3966 162.98 45.4245 163.053 45.4503C163.6 45.6456 164.188 45.753 164.802 45.753C165.498 45.753 166.164 45.6156 166.769 45.3665C167.568 45.0402 168.265 44.5207 168.806 43.8659C169.553 42.9664 170 41.8114 170 40.5534C170 39.6088 169.749 38.7243 169.306 37.96V37.96Z" fill="#072728"/>
</g>
<defs>
<clipPath id="clip0_219_106">
<rect width="170" height="46.5" rx="5" fill="white"/>
</clipPath>
</defs>
</svg>
