<svg width="130" height="36" viewBox="0 0 130 36" fill="none" xmlns="http://www.w3.org/2000/svg">
<g clip-path="url(#clip0_219_106)">
<path d="M21.0546 25.1145C19.7987 26.6774 17.9879 27.5229 15.7158 27.5229C11.0748 27.5229 8.35946 23.9965 8.35946 18.0454C8.35946 12.0943 11.4869 8.55814 15.7158 8.55814C17.832 8.55814 19.6723 9.44465 20.9824 11.0748C21.7687 8.46129 23.0394 6.17935 24.7648 4.3144C23.7749 3.46729 22.67 2.7745 21.4732 2.23931C19.5623 1.38728 17.4133 0.942383 15.1051 0.942383C12.7969 0.942383 10.648 1.38728 8.73704 2.23931C3.46231 4.59348 0 10.0521 0 17.8254C0 28.4159 5.5768 34.6921 15.1051 34.6921C19.0222 34.6921 22.2711 33.6315 24.7402 31.6435C24.6384 31.5384 24.5415 31.4333 24.4447 31.325C22.931 29.6308 21.7917 27.5376 21.0546 25.1145Z" fill="#BCE102"/>
<path d="M46.6058 4.44409C45.5764 3.53952 44.4207 2.80077 43.1631 2.23931C41.2506 1.38728 39.1016 0.942383 36.7934 0.942383C34.4852 0.942383 32.3362 1.38728 30.4253 2.23931C28.7262 2.99777 27.2174 4.07635 25.9484 5.45208C24.1376 7.41718 22.8227 9.98641 22.1643 13.0826C21.8524 14.5486 21.6882 16.1312 21.6882 17.8254C21.6882 19.7232 21.8672 21.4831 22.2169 23.092C22.8752 26.1323 24.1409 28.6392 25.9501 30.5337C28.5242 33.2326 32.1983 34.6921 36.7934 34.6921C40.8057 34.6921 44.117 33.579 46.6058 31.499V13.6424C46.6058 10.6808 47.1065 8.12146 48.1046 5.98563C47.6417 5.42746 47.1409 4.91361 46.6058 4.44409ZM36.7934 27.0763C32.745 27.0763 30.3744 23.6321 30.3744 17.8222C30.3744 12.0122 33.1045 8.55814 36.7934 8.55814C40.4823 8.55814 43.214 12.0106 43.214 17.8222C43.214 23.6337 40.8434 27.0763 36.7934 27.0763Z" fill="#BCE102"/>
<path d="M74.7542 6.50108C74.4275 7.28089 74.1648 8.11486 73.9661 8.99973C73.6444 10.4149 73.4835 11.9646 73.4835 13.6424V34.6922H67.0514V12.751C67.0514 8.36768 63.6137 8.03606 62.2215 8.03606C61.468 8.03606 60.1185 8.13292 59.035 8.91601C58.1173 9.57925 57.3933 10.7383 57.3933 12.751V34.6922H48.2475V13.6424C48.2475 11.2045 48.6152 9.19838 49.2374 7.55176C49.4738 6.923 49.748 6.34841 50.0517 5.81978C50.9645 4.23884 52.1498 3.08309 53.4451 2.23926C54.7092 1.41678 56.0783 0.891437 57.3933 0.558174C57.9548 0.415347 58.5047 0.308637 59.035 0.228195C60.2613 0.0426839 61.3728 0 62.2215 0C63.438 0 65.193 0.0870095 67.0514 0.558174C68.368 0.891437 69.7355 1.41678 70.9996 2.23926C71.8993 2.82535 72.7447 3.56082 73.4835 4.48509C73.9563 5.0761 74.3848 5.74591 74.7542 6.50108Z" fill="#BCE102"/>
<path d="M103.075 32.7041V34.6922H93.929V12.751C93.929 8.36768 90.4929 8.03606 89.1008 8.03606C88.3472 8.03606 86.9945 8.13292 85.9126 8.91765C84.9949 9.58089 84.2709 10.7399 84.2709 12.751V34.6922H75.1251V13.6424C75.1251 11.876 75.3172 10.3377 75.6619 8.99645C75.8113 8.40544 75.9919 7.85384 76.1971 7.33835C76.3137 7.04777 76.4368 6.76868 76.5681 6.50108C77.5154 4.56389 78.8484 3.19965 80.3227 2.23926C81.5884 1.41678 82.9559 0.891437 84.2709 0.558174C84.8324 0.415347 85.3823 0.308637 85.9126 0.228195C87.1389 0.0426839 88.252 0 89.1008 0C90.3172 0 92.0706 0.0870095 93.929 0.558174C95.2439 0.891437 96.6131 1.41678 97.8772 2.23926C98.442 2.607 98.9853 3.03384 99.4959 3.53127V21.9165C99.4959 25.0177 100.046 27.6756 101.138 29.8705C101.658 30.9212 102.305 31.8668 103.075 32.7041Z" fill="#BCE102"/>
<path d="M120.43 30.5041C120.69 27.595 123.195 25.3492 126.116 25.3952C126.457 25.4001 126.792 25.4362 127.115 25.5019C127.669 25.6102 128.192 25.8006 128.673 26.06C128.941 24.8419 129.089 23.4678 129.089 21.9181V2.23926H119.943V22.8079C119.943 27.1911 116.507 27.5228 115.115 27.5228C114.361 27.5228 113.012 27.4259 111.928 26.6428C111.01 25.9796 110.287 24.8206 110.287 22.8079V2.23926H101.139V21.9164C101.139 25.4149 101.896 28.0218 103.076 29.9607C104.639 32.5315 106.947 33.9335 109.224 34.692C109.581 34.8102 109.935 34.912 110.287 35.0006C110.848 35.1434 111.398 35.2502 111.928 35.3306C113.155 35.5161 114.266 35.5588 115.115 35.5588C116.331 35.5588 118.085 35.4718 119.943 35.0006C120.294 34.912 120.649 34.8102 121.005 34.692C121.205 34.6247 121.406 34.5524 121.608 34.4753C121.271 34.0484 120.997 33.5724 120.797 33.0602C120.49 32.2771 120.352 31.4103 120.432 30.5041H120.43Z" fill="#BCE102"/>
<path d="M129.47 29.0283C129.36 28.8329 129.23 28.649 129.087 28.4767C128.837 28.173 128.542 27.9086 128.212 27.6903C127.761 27.3915 127.243 27.183 126.688 27.0911C126.611 27.0779 126.534 27.0665 126.455 27.0582C124.439 26.8383 122.542 28.1877 122.134 30.1742C121.974 30.9572 122.046 31.7223 122.297 32.3954C122.487 32.9092 122.781 33.3705 123.152 33.758C123.535 34.1585 123.999 34.4787 124.52 34.6921C124.576 34.7151 124.631 34.7364 124.687 34.7561C125.106 34.9055 125.556 34.9876 126.025 34.9876C126.557 34.9876 127.066 34.8825 127.529 34.6921C128.14 34.4425 128.673 34.0453 129.087 33.5445C129.658 32.8567 130 31.9734 130 31.0114C130 30.2891 129.808 29.6127 129.47 29.0283Z" fill="#BCE102"/>
</g>
<defs>
<clipPath id="clip0_219_106">
<rect width="130" height="35.5588" rx="5" fill="white"/>
</clipPath>
</defs>
</svg>
