<svg width="70" height="70" viewBox="0 0 70 70" fill="none" xmlns="http://www.w3.org/2000/svg">
<path d="M59.463 6.30697C58.0438 4.88482 56.1565 4.10156 54.1486 4.10156H50.7568V3.41797C50.7568 1.5333 49.2235 0 47.3389 0H22.7295C20.8448 0 19.3115 1.5333 19.3115 3.41797V4.10156H15.9076C11.7704 4.10156 8.40069 7.47113 8.39604 11.6128L8.33985 62.4721C8.33766 64.4822 9.11791 66.3724 10.5369 67.7946C11.9561 69.2167 13.8435 70 15.8514 70H54.0922C58.2296 70 61.5993 66.6304 61.6038 62.4888L61.6602 11.6294C61.6625 9.61926 60.8821 7.72898 59.463 6.30697ZM23.4131 4.10156H46.6553V8.20312H23.4131V4.10156ZM57.5066 62.4842C57.5045 64.3669 55.9728 65.8984 54.0922 65.8984H15.8514C14.9387 65.8984 14.0808 65.5424 13.4358 64.896C12.7907 64.2495 12.4361 63.3903 12.437 62.4768L12.4932 11.6174C12.4953 9.73465 14.0269 8.20312 15.9076 8.20312H19.3115V8.88672C19.3115 10.7714 20.8448 12.3047 22.7295 12.3047H47.3389C49.2235 12.3047 50.7568 10.7714 50.7568 8.88672V8.20312H54.1486C55.0613 8.20312 55.9192 8.55914 56.5642 9.20555C57.2093 9.85195 57.5641 10.7112 57.563 11.6248L57.5066 62.4842Z" fill="white"/>
<path d="M35.6971 27.3438H50.2674C51.4 27.3438 52.3182 26.4255 52.3182 25.293C52.3182 24.1604 51.4 23.2422 50.2674 23.2422H35.6971C34.5646 23.2422 33.6464 24.1604 33.6464 25.293C33.6464 26.4255 34.5646 27.3438 35.6971 27.3438Z" fill="white"/>
<path d="M35.6971 41.0156H50.2674C51.4 41.0156 52.3182 40.0974 52.3182 38.9648C52.3182 37.8323 51.4 36.9141 50.2674 36.9141H35.6971C34.5646 36.9141 33.6464 37.8323 33.6464 38.9648C33.6464 40.0974 34.5646 41.0156 35.6971 41.0156Z" fill="white"/>
<path d="M50.326 50.5859H35.6971C34.5646 50.5859 33.6464 51.5041 33.6464 52.6367C33.6464 53.7693 34.5646 54.6875 35.6971 54.6875H50.326C51.4586 54.6875 52.3768 53.7693 52.3768 52.6367C52.3768 51.5041 51.4588 50.5859 50.326 50.5859Z" fill="white"/>
<path d="M26.9686 19.7091L22.2392 24.4384L21.1241 23.3232C20.3232 22.5223 19.0248 22.5223 18.2239 23.3232C17.423 24.124 17.423 25.4225 18.2239 26.2234L20.7892 28.7888C21.1737 29.1734 21.6953 29.3896 22.2393 29.3896C22.7832 29.3896 23.3048 29.1735 23.6894 28.7888L29.8689 22.6094C30.6698 21.8086 30.6698 20.5101 29.8689 19.7092C29.068 18.9082 27.7696 18.9082 26.9686 19.7091Z" fill="white"/>
<path d="M26.9686 34.425L22.2392 39.1544L21.1241 38.0393C20.3232 37.2384 19.0248 37.2384 18.2239 38.0393C17.423 38.8401 17.423 40.1385 18.2239 40.9395L20.7892 43.5049C21.1737 43.8895 21.6953 44.1057 22.2393 44.1057C22.7832 44.1057 23.3049 43.8896 23.6894 43.5049L29.8689 37.3254C30.6698 36.5246 30.6698 35.2261 29.8689 34.4252C29.068 33.6243 27.7695 33.6243 26.9686 34.425Z" fill="white"/>
<path d="M26.9686 48.0969L22.2392 52.8263L21.1241 51.7112C20.3232 50.9103 19.0248 50.9103 18.2239 51.7112C17.423 52.512 17.423 53.8104 18.2239 54.6114L20.7892 57.1768C21.1737 57.5614 21.6953 57.7775 22.2393 57.7775C22.7832 57.7775 23.3049 57.5615 23.6894 57.1768L29.8689 50.9972C30.6698 50.1965 30.6698 48.8979 29.8689 48.097C29.068 47.2961 27.7695 47.2961 26.9686 48.0969Z" fill="white"/>
</svg>
