<svg width="70" height="66" viewBox="0 0 70 66" fill="none" xmlns="http://www.w3.org/2000/svg">
<path d="M63.9851 39.3981C63.5235 39.0682 62.8821 39.1751 62.5524 39.6366C62.2226 40.0981 62.3294 40.7396 62.7908 41.0693C66.0187 43.3759 67.9459 47.118 67.9459 51.0796C67.9459 54.0352 66.8973 56.7503 65.153 58.8731C63.7148 56.1097 61.7057 54.3334 60.1312 53.2739C60.9852 52.2406 61.4697 50.9293 61.4697 49.5652C61.4697 46.357 58.8597 43.747 55.6516 43.747C52.4435 43.747 49.8334 46.3569 49.8334 49.5652C49.8334 50.9293 50.3181 52.2406 51.1719 53.2739C49.5976 54.3334 47.5885 56.1099 46.1502 58.8731C44.406 56.7503 43.3573 54.0352 43.3573 51.0797C43.3573 44.3007 48.8726 38.7854 55.6516 38.7854C56.9553 38.7854 58.2384 38.9883 59.4654 39.3882C60.0042 39.5636 60.5843 39.2693 60.7601 38.7301C60.936 38.1907 60.6412 37.6112 60.102 37.4353C58.669 36.9683 57.1717 36.7314 55.6516 36.7314C50.9729 36.7314 46.8103 38.9827 44.1895 42.4587L36.0407 37.1988V29.2317C43.4748 28.7032 49.362 22.4868 49.362 14.9206C49.362 7.00898 42.9254 0.572266 35.0138 0.572266C32.0802 0.572266 29.2592 1.45191 26.8555 3.11592C26.3892 3.43871 26.2728 4.07842 26.5958 4.5449C26.9186 5.01098 27.5583 5.1276 28.0247 4.80453C30.0833 3.37951 32.5001 2.62619 35.0138 2.62619C41.7929 2.62619 47.3081 8.14143 47.3081 14.9205C47.3081 17.8761 46.2596 20.5912 44.5152 22.7139C43.0769 19.9506 41.0679 18.1741 39.4934 17.1147C40.3473 16.0814 40.8319 14.7701 40.8319 13.4058C40.8319 10.1978 38.2219 7.58771 35.0138 7.58771C31.8057 7.58771 29.1957 10.1977 29.1957 13.4058C29.1957 14.7701 29.6803 16.0815 30.5342 17.1147C28.9598 18.1741 26.9508 19.9506 25.5124 22.7139C23.768 20.5912 22.7195 17.8761 22.7195 14.9205C22.7195 12.1813 23.6005 9.58955 25.2674 7.42529C25.6134 6.97604 25.5298 6.33113 25.0805 5.9851C24.6311 5.63879 23.9862 5.7226 23.6402 6.17199C21.6941 8.69855 20.6656 11.7237 20.6656 14.9204C20.6656 22.4866 26.5527 28.7031 33.9868 29.2314V37.1985L25.8054 42.4794C23.1842 39.0072 19.0241 36.7587 14.3484 36.7587C6.43658 36.7589 0 43.1956 0 51.1072C0 54.3934 1.13928 57.6049 3.20811 60.1505C5.24686 62.6593 8.09854 64.4231 11.2376 65.1172C11.7913 65.2393 12.3396 64.8898 12.4621 64.3361C12.5844 63.7824 12.2348 63.2342 11.681 63.1117C9.72713 62.6796 7.90453 61.7612 6.38258 60.4671C7.95416 56.9992 10.587 55.1604 12.0679 54.355C12.7222 54.024 12.7854 53.0308 12.1779 52.6197C11.1971 51.9123 10.6116 50.7703 10.6116 49.565C10.6116 47.4895 12.3002 45.8009 14.3757 45.8009C16.4512 45.8009 18.1398 47.4895 18.1398 49.565C18.1398 50.7703 17.5543 51.9123 16.5736 52.6197C15.9662 53.0308 16.0295 54.024 16.6837 54.355C18.1599 55.1578 20.7808 56.9873 22.3543 60.4339C20.4241 62.0934 18.0306 63.1181 15.4774 63.3505C14.9125 63.4019 14.4963 63.9015 14.5476 64.4663C14.5961 64.9995 15.044 65.4003 15.5691 65.4003C15.6003 65.4003 15.6317 65.3988 15.6633 65.396C19.2132 65.0732 22.5008 63.4436 24.9205 60.8078C27.3554 58.1553 28.6964 54.7103 28.6964 51.1073C28.6964 48.6062 28.0525 46.2529 26.9228 44.2033L35.0138 38.9808L43.0731 44.183C41.9459 46.2309 41.3034 48.5815 41.3034 51.0797C41.3034 58.9914 47.74 65.4281 55.6516 65.4281C63.5633 65.4281 70 58.9912 70 51.0796C70 46.4563 67.7514 42.0894 63.9851 39.3981ZM23.8771 58.8727C22.4388 56.1096 20.4299 54.3334 18.8556 53.2739C19.7094 52.2406 20.194 50.9293 20.194 49.5652C20.194 46.357 17.5841 43.747 14.376 43.747C11.1679 43.747 8.55791 46.3569 8.55791 49.5652C8.55791 50.9293 9.04258 52.2406 9.89639 53.2739C8.31414 54.3387 6.29262 56.1278 4.85283 58.9149C4.83615 58.8948 4.81865 58.8756 4.80211 58.8552C3.02996 56.6747 2.05393 53.9231 2.05393 51.1073C2.05393 44.3283 7.56916 38.813 14.3482 38.813C21.1273 38.813 26.6425 44.3283 26.6425 51.1073C26.6425 53.9533 25.6642 56.6829 23.8771 58.8727ZM32.706 18.1957C33.3603 17.8646 33.4234 16.8715 32.8161 16.4605C31.8352 15.7532 31.2498 14.6112 31.2498 13.4058C31.2498 11.3303 32.9384 9.64178 35.0139 9.64178C37.0895 9.64178 38.7781 11.3303 38.7781 13.4058C38.7781 14.6112 38.1927 15.7532 37.2118 16.4605C36.6044 16.8715 36.6676 17.8646 37.3219 18.1957C38.7974 18.9981 41.4162 20.8261 42.9898 24.2685C40.8413 26.1044 38.0551 27.2146 35.0142 27.2146C31.9732 27.2146 29.1871 26.1044 27.0385 24.2685C28.6118 20.8261 31.2307 18.9983 32.706 18.1957ZM55.6518 63.3739C52.6107 63.3739 49.8246 62.2635 47.676 60.4276C49.2496 56.985 51.8685 55.1572 53.3438 54.355C53.9982 54.024 54.0613 53.0308 53.4539 52.6197C52.4731 51.9123 51.8875 50.7703 51.8875 49.565C51.8875 47.4895 53.5761 45.8009 55.6516 45.8009C57.7272 45.8009 59.4158 47.4895 59.4158 49.565C59.4158 50.7703 58.8302 51.9123 57.8494 52.6197C57.242 53.0308 57.3053 54.024 57.9595 54.355C59.4348 55.1574 62.0536 56.985 63.6273 60.4277C61.4789 62.2636 58.6927 63.3739 55.6518 63.3739Z" fill="white"/>
</svg>
