<svg width="89" height="90" viewBox="0 0 89 90" fill="none" xmlns="http://www.w3.org/2000/svg">
<ellipse cx="44.0176" cy="45" rx="43.9976" ry="45" fill="#E5F0FD"/>
<g clip-path="url(#clip0_299_802)">
<path d="M63.9429 50.9801C62.6614 45.0474 58.0423 40.3431 52.155 38.9388C54.9913 36.5474 56.7464 32.9121 56.5716 28.8828C56.2927 22.451 51.0694 17.2554 44.6365 17.0086C37.5596 16.7375 31.7166 22.4156 31.7166 29.4328C31.7166 33.2418 33.4396 36.6558 36.1453 38.9377C29.189 40.5988 24 46.8668 24 54.3244V59.976C24 63.6666 26.9912 66.6579 30.6819 66.6579H52.1196C53.8338 70.7568 57.8796 73.6474 62.5895 73.6595C68.7435 73.6761 73.8395 68.7284 73.9956 62.5755C74.1516 56.4226 69.6907 51.6485 63.9429 50.9801ZM35.0852 29.8589C34.8395 24.5204 39.235 20.1238 44.5746 20.3683C49.2302 20.5819 53.0005 24.35 53.2152 29.0056C53.4619 34.3452 49.0642 38.744 43.7247 38.4984C39.0702 38.2837 35.2998 34.5145 35.0863 29.8589H35.0852ZM51.2431 62.2811C51.2431 62.6242 51.2586 62.9628 51.2885 63.2992H32.5631C29.6892 63.2992 27.3586 60.9686 27.3586 58.0947V54.3244C27.3586 47.4444 32.9361 41.867 39.816 41.867H48.4832C54.2377 41.867 59.0925 45.7889 60.5167 51.0996C55.2447 52.0901 51.242 56.7269 51.242 62.2822L51.2431 62.2811ZM63.145 70.2832C58.3112 70.5919 54.3096 66.5903 54.6184 61.7566C54.874 57.7616 58.101 54.5335 62.097 54.2779C66.9308 53.9692 70.9324 57.9708 70.6236 62.8045C70.368 66.7995 67.1411 70.0276 63.145 70.2832Z" fill="#00BAC6"/>
<path d="M64.3015 57.577H60.9428V60.6026H57.9173V63.9612H60.9428V66.9868H64.3015V63.9612H67.327V60.6026H64.3015V57.577Z" fill="#00BAC6"/>
</g>
<defs>
<clipPath id="clip0_299_802">
<rect width="50" height="56.6598" fill="white" transform="translate(24 17)"/>
</clipPath>
</defs>
</svg>
