<svg width="70" height="70" viewBox="0 0 70 70" fill="none" xmlns="http://www.w3.org/2000/svg">
<g clip-path="url(#clip0_49_366)">
<path d="M44.2982 23.7168L38.7324 22.9085L36.243 17.8636C36.1085 17.591 35.8878 17.3705 35.6151 17.2358C34.9303 16.8976 34.101 17.1787 33.7628 17.8636L31.2733 22.9085L25.706 23.7168C25.4046 23.7603 25.126 23.9019 24.9135 24.1199C24.38 24.6666 24.3909 25.5423 24.9376 26.0756L28.9653 30.0018L28.014 35.546C28.0008 35.6231 27.9942 35.7013 27.9942 35.7795C27.9942 36.5433 28.6133 37.1626 29.3771 37.1626C29.6019 37.1609 29.8229 37.1045 30.0211 36.9981L34.9999 34.3858L39.9788 36.9981C40.2478 37.1407 40.5565 37.1905 40.8568 37.14C41.61 37.0128 42.1174 36.2992 41.9903 35.546L41.0391 30.0018L45.0667 26.0756C45.2846 25.863 45.4263 25.5844 45.4698 25.2831C45.5786 24.5269 45.0542 23.8257 44.2982 23.7168ZM38.5849 28.5172C38.2572 28.8361 38.1083 29.2962 38.187 29.7466L38.7863 33.2456L35.6438 31.5936C35.4449 31.4911 35.2239 31.4384 34.9999 31.4399C34.7752 31.4416 34.5542 31.498 34.356 31.6044L31.2136 33.2564L31.8144 29.7574C31.8931 29.3069 31.7442 28.8469 31.4165 28.528L28.8747 26.0494L32.3875 25.5392C32.8381 25.4739 33.2276 25.1913 33.4294 24.7832L34.9999 21.5993L36.5704 24.7832C36.7721 25.1913 37.1618 25.4741 37.6123 25.5392L41.1266 26.0402L38.5849 28.5172Z" fill="white"/>
<path d="M34.9999 9.43652C25.0603 9.43652 17.0026 17.4943 17.0026 27.4339C17.0026 37.3735 25.0603 45.4312 34.9999 45.4312C44.935 45.4201 52.9863 37.3689 52.9973 27.4339C52.9973 17.4943 44.9395 9.43652 34.9999 9.43652ZM34.9999 42.6652C26.5879 42.6652 19.7685 35.8459 19.7685 27.4339C19.7685 19.0219 26.5879 12.2025 34.9999 12.2025C43.4082 12.2119 50.2219 19.0258 50.2313 27.4339C50.2313 35.846 43.4119 42.6652 34.9999 42.6652Z" fill="white"/>
<path d="M60.3302 31.1635L57.7425 32.1423C58.1451 33.2072 58.6461 34.5319 58.474 35.062C58.2803 35.6582 57.1079 36.422 56.0721 37.0965C54.8428 37.8987 53.4444 38.8084 52.484 40.1298C51.5235 41.4514 51.0703 43.0879 50.6814 44.5171C50.3741 45.6404 49.9961 47.0388 49.5059 47.3952C49.0157 47.7517 47.5958 47.6734 46.4326 47.6181C44.9467 47.5474 43.2624 47.4644 41.6782 47.9838C40.1415 48.4816 38.8646 49.5204 37.7336 50.4317C36.7639 51.2154 35.6637 52.1036 35.0015 52.1036C34.3393 52.1036 33.2388 51.2155 32.2678 50.4287C31.1368 49.5143 29.8553 48.4787 28.3248 47.9824C27.4489 47.698 26.4669 47.566 25.2331 47.566C24.663 47.566 24.1052 47.592 23.5674 47.6183C22.4134 47.6735 20.9781 47.7412 20.5033 47.3954C20.0285 47.0497 19.6335 45.6375 19.3262 44.5141C18.9375 43.0834 18.498 41.4638 17.5252 40.1269C16.5525 38.79 15.168 37.8972 13.9355 37.0936C12.9014 36.419 11.7289 35.6552 11.5352 35.0591C11.3631 34.532 11.8656 33.2059 12.2683 32.1394C12.8015 30.7302 13.4038 29.1337 13.4038 27.4341C13.4038 25.7345 12.7998 24.138 12.2667 22.7288C11.8641 21.664 11.3631 20.3377 11.5337 19.8091C11.7273 19.213 12.8997 18.4492 13.9355 17.7731C15.1649 16.9709 16.5617 16.0612 17.5237 14.7413C18.4857 13.4213 18.9373 11.7832 19.3262 10.3541C19.6335 9.23075 20.0115 7.83238 20.5017 7.47593C20.992 7.11947 22.4118 7.19781 23.5674 7.25306C25.0533 7.32376 26.7391 7.40679 28.331 6.8874C29.8676 6.38954 31.143 5.35076 32.2756 4.43948C33.2376 3.65275 34.3379 2.76598 35.0001 2.76598C35.6623 2.76598 36.7627 3.65259 37.7322 4.43933C38.8632 5.35357 40.1447 6.38939 41.6768 6.88724C43.2626 7.40195 44.9482 7.32204 46.4404 7.25291C47.5944 7.19906 49.0297 7.13149 49.5045 7.47577C49.9792 7.82005 50.3666 9.22903 50.6739 10.354C51.0626 11.7846 51.5021 13.4043 52.4749 14.7412C53.4477 16.078 54.8321 16.9725 56.0646 17.7745C57.0989 18.449 58.2712 19.2128 58.4665 19.809C58.6386 20.3376 58.1361 21.6637 57.7334 22.7287C57.2001 24.1378 56.5963 25.7359 56.5963 27.4339C56.5963 29.132 57.2003 30.7301 57.7334 32.1392L59.0272 31.6506L60.321 31.1619C59.8277 29.8589 59.3621 28.628 59.3621 27.4339C59.3621 26.2399 59.8232 25.0091 60.3195 23.706C60.9603 22.0156 61.5672 20.4067 61.0954 18.9547C60.5991 17.4288 59.0609 16.4268 57.5735 15.4572C56.4978 14.7519 55.3729 14.0236 54.7107 13.1139C54.0484 12.2041 53.6843 10.8872 53.3415 9.62872C52.8574 7.84924 52.4011 6.16808 51.1241 5.23995C49.8472 4.31182 48.1337 4.40406 46.3021 4.49005C44.9913 4.55154 43.6345 4.616 42.5297 4.25642C41.4848 3.91682 40.4598 3.08857 39.4701 2.28794C38.0732 1.16332 36.641 0 34.9999 0C33.3589 0 31.9266 1.16332 30.5283 2.28966C29.5387 3.09028 28.5138 3.91697 27.4687 4.25657C26.3639 4.61459 25.0669 4.55466 23.6963 4.49021C21.8645 4.40421 20.1344 4.32275 18.8727 5.24011C17.6111 6.15747 17.1394 7.85236 16.6553 9.63028C16.3126 10.8888 15.9593 12.1904 15.2861 13.1154C14.613 14.0404 13.5067 14.7535 12.4234 15.4588C10.9359 16.4284 9.39772 17.4304 8.90143 18.9562C8.42964 20.4084 9.03659 22.0111 9.6774 23.7091C10.1692 25.0123 10.6347 26.243 10.6347 27.4355C10.6347 28.628 10.1737 29.8588 9.6774 31.1635C9.03659 32.8538 8.42964 34.4643 8.90143 35.9148C9.39772 37.4422 10.9359 38.4442 12.4234 39.4138C13.499 40.1191 14.6239 40.8474 15.2846 41.7572C15.9454 42.6669 16.311 43.9838 16.6538 45.2423C16.9487 46.3302 17.2362 47.3813 17.7064 48.2464L12.1038 62.5743C11.826 63.2858 12.1776 64.0879 12.8891 64.3657C13.101 64.4484 13.3301 64.4776 13.556 64.4506L21.3929 63.5132L26.5116 69.5154C27.0077 70.0961 27.8808 70.1646 28.4615 69.6684C28.6361 69.5192 28.7708 69.3288 28.8535 69.1143L34.4393 54.8234C34.8112 54.8854 35.1908 54.8854 35.5627 54.8234L41.1469 69.1143C41.4252 69.8257 42.2274 70.1767 42.9387 69.8984C43.151 69.8154 43.3394 69.6812 43.4873 69.5078L48.606 63.5056L56.4429 64.4429C57.2014 64.5327 57.889 63.9903 57.9788 63.2318C58.0051 63.0093 57.9769 62.7836 57.8967 62.5743L52.2918 48.2435C52.7621 47.3784 53.0478 46.3273 53.3445 45.2393C53.6857 43.9808 54.039 42.6792 54.7137 41.7542C55.3882 40.8292 56.4932 40.1161 57.5764 39.4108C59.0639 38.4412 60.6037 37.4393 61.0984 35.9134C61.5702 34.4612 60.9648 32.8599 60.3302 31.1635ZM27.1121 65.9627L23.0138 61.1544C22.7132 60.8025 22.2564 60.6243 21.7968 60.6797L15.521 61.4311L19.9298 50.1551C21.0285 50.5055 22.333 50.444 23.6946 50.3796C24.2016 50.3549 24.7257 50.3304 25.2312 50.3304C26.1654 50.3304 26.8769 50.4195 27.4686 50.6116C28.5135 50.9512 29.5369 51.7779 30.5281 52.5801C30.9891 52.9504 31.4502 53.3239 31.9234 53.6557L27.1121 65.9627ZM54.4785 61.4311L48.2043 60.6797C47.7445 60.6247 47.2875 60.8034 46.9873 61.156L42.8874 65.9643L38.073 53.6587C38.5464 53.3238 39.0104 52.9503 39.4683 52.5831C40.4579 51.7824 41.4828 50.9558 42.5278 50.6161C43.6312 50.2581 44.9266 50.3181 46.3018 50.3825C47.6771 50.4471 48.9679 50.5069 50.0666 50.1581L54.4785 61.4311Z" fill="white"/>
</g>
<defs>
<clipPath id="clip0_49_366">
<rect width="70" height="70" fill="white"/>
</clipPath>
</defs>
</svg>
