<svg width="200" height="55" viewBox="0 0 200 55" fill="none" xmlns="http://www.w3.org/2000/svg">
<g clip-path="url(#clip0_49_161)">
<path d="M32.3917 38.6376C30.4595 41.0421 27.6737 42.3428 24.1782 42.3428C17.0382 42.3428 12.8607 36.9176 12.8607 27.7621C12.8607 18.6066 17.6721 13.1663 24.1782 13.1663C27.4338 13.1663 30.2651 14.5301 32.2805 17.0381C33.4903 13.0173 35.4452 9.50659 38.0997 6.63743C36.5767 5.33418 34.8769 4.26835 33.0357 3.44498C30.0958 2.13416 26.7897 1.44971 23.2387 1.44971C19.6876 1.44971 16.3815 2.13416 13.4416 3.44498C5.32663 7.06679 0 15.4646 0 27.4237C0 43.7167 8.57969 53.3724 23.2387 53.3724C29.2649 53.3724 34.2632 51.7408 38.0618 48.6822C37.9052 48.5206 37.7562 48.3589 37.6072 48.1922C35.2785 45.5857 33.5257 42.3655 32.3917 38.6376Z" fill="#00BAC6"/>
<path d="M71.7012 6.83695C70.1176 5.44531 68.3395 4.30876 66.4048 3.44498C63.4624 2.13416 60.1563 1.44971 56.6052 1.44971C53.0542 1.44971 49.7481 2.13416 46.8082 3.44498C44.1941 4.61184 41.873 6.2712 39.9207 8.38771C37.1349 11.4109 35.1118 15.3636 34.099 20.127C33.6191 22.3824 33.3666 24.8172 33.3666 27.4237C33.3666 30.3433 33.6419 33.0509 34.1798 35.526C35.1926 40.2035 37.1399 44.0602 39.9232 46.9749C43.8835 51.1271 49.5359 53.3724 56.6052 53.3724C62.778 53.3724 67.8722 51.66 71.7012 48.4599V20.9883C71.7012 16.432 72.4715 12.4944 74.0071 9.20856C73.2948 8.34983 72.5245 7.5593 71.7012 6.83695ZM56.6052 41.6558C50.3769 41.6558 46.7299 36.3569 46.7299 27.4186C46.7299 18.4803 50.9301 13.1663 56.6052 13.1663C62.2804 13.1663 66.4831 18.4778 66.4831 27.4186C66.4831 36.3595 62.8361 41.6558 56.6052 41.6558Z" fill="#00BAC6"/>
<path d="M115.006 10.0016C114.504 11.2013 114.1 12.4844 113.794 13.8457C113.299 16.0228 113.051 18.4071 113.051 20.9883V53.3724H103.156V19.6169C103.156 12.8733 97.8671 12.3631 95.7253 12.3631C94.566 12.3631 92.4899 12.5122 90.823 13.7169C89.4111 14.7373 88.2973 16.5204 88.2973 19.6169V53.3724H74.2268V20.9883C74.2268 17.2377 74.7926 14.1513 75.7498 11.6181C76.1135 10.6507 76.5353 9.76675 77.0025 8.95349C78.4068 6.52127 80.2303 4.7432 82.2231 3.44501C84.1678 2.17965 86.2742 1.37144 88.2973 0.858727C89.1611 0.638994 90.0072 0.474825 90.823 0.351068C92.7096 0.0656673 94.4195 0 95.7253 0C97.5968 0 100.297 0.13386 103.156 0.858727C105.181 1.37144 107.285 2.17965 109.23 3.44501C110.614 4.34667 111.915 5.47817 113.051 6.90012C113.779 7.80936 114.438 8.83983 115.006 10.0016Z" fill="#00BAC6"/>
<path d="M158.577 50.3138V53.3724H144.506V19.6169C144.506 12.8733 139.22 12.3631 137.078 12.3631C135.919 12.3631 133.838 12.5122 132.173 13.7194C130.761 14.7398 129.648 16.5229 129.648 19.6169V53.3724H115.577V20.9883C115.577 18.2707 115.873 15.9041 116.403 13.8407C116.633 12.9314 116.911 12.0828 117.226 11.2897C117.406 10.8427 117.595 10.4133 117.797 10.0016C119.254 7.02135 121.305 4.92252 123.573 3.44501C125.521 2.17965 127.624 1.37144 129.648 0.858727C130.511 0.638994 131.357 0.474825 132.173 0.351068C134.06 0.0656673 135.772 0 137.078 0C138.95 0 141.647 0.13386 144.506 0.858727C146.529 1.37144 148.635 2.17965 150.58 3.44501C151.449 4.01076 152.285 4.66743 153.071 5.43271V33.7177C153.071 38.4886 153.917 42.5777 155.596 45.9545C156.397 47.5709 157.392 49.0257 158.577 50.3138Z" fill="#00BAC6"/>
<path d="M185.278 46.9295C185.677 42.454 189.531 38.9989 194.024 39.0696C194.55 39.0772 195.065 39.1327 195.562 39.2338C196.414 39.4005 197.219 39.6934 197.959 40.0925C198.371 38.2185 198.598 36.1045 198.598 33.7202V3.44507H184.528V35.0891C184.528 41.8327 179.242 42.3429 177.1 42.3429C175.94 42.3429 173.864 42.1938 172.197 40.9891C170.786 39.9687 169.672 38.1856 169.672 35.0891V3.44507H155.599V33.7177C155.599 39.0999 156.763 43.1107 158.579 46.0935C160.983 50.0487 164.535 52.2056 168.038 53.3725C168.586 53.5543 169.131 53.7109 169.672 53.8473C170.536 54.067 171.382 54.2312 172.197 54.3549C174.084 54.6403 175.794 54.706 177.1 54.706C178.971 54.706 181.669 54.5721 184.528 53.8473C185.068 53.7109 185.614 53.5543 186.162 53.3725C186.47 53.2689 186.778 53.1578 187.089 53.0391C186.571 52.3824 186.149 51.6499 185.841 50.8619C185.369 49.6572 185.157 48.3236 185.28 46.9295H185.278Z" fill="#00BAC6"/>
<path d="M199.184 44.6589C199.015 44.3584 198.816 44.0755 198.596 43.8103C198.212 43.3431 197.757 42.9364 197.25 42.6005C196.555 42.1408 195.759 41.8201 194.906 41.6786C194.787 41.6584 194.668 41.6408 194.547 41.6281C191.446 41.2897 188.526 43.3658 187.9 46.4218C187.652 47.6266 187.763 48.8035 188.15 49.8391C188.443 50.6296 188.895 51.3393 189.465 51.9354C190.054 52.5516 190.769 53.0441 191.569 53.3725C191.655 53.4078 191.741 53.4407 191.827 53.471C192.471 53.7008 193.163 53.8271 193.885 53.8271C194.704 53.8271 195.487 53.6655 196.199 53.3725C197.138 52.9886 197.959 52.3774 198.596 51.607C199.475 50.5488 200 49.19 200 47.7099C200 46.5986 199.705 45.5581 199.184 44.6589Z" fill="#00BAC6"/>
</g>
<defs>
<clipPath id="clip0_49_161">
<rect width="200" height="54.706" rx="5" fill="white"/>
</clipPath>
</defs>
</svg>
