<svg width="39" height="45" viewBox="0 0 39 45" fill="none" xmlns="http://www.w3.org/2000/svg">
<path d="M26.0688 38.1394C26.4193 34.214 29.8046 31.1836 33.7512 31.2456C34.2127 31.2522 34.6652 31.301 35.1023 31.3896C35.8499 31.5358 36.5576 31.7928 37.2076 32.1428C37.5692 30.4991 37.7688 28.6449 37.7688 26.5538V0H25.4099V27.7544C25.4099 33.669 20.7667 34.1165 18.8855 34.1165C17.8673 34.1165 16.0437 33.9858 14.5795 32.9292C13.3394 32.0342 12.3611 30.4703 12.3611 27.7544V0H0V26.5516C0 31.2722 1.02269 34.7899 2.61775 37.4061C4.7297 40.8751 7.84881 42.7669 10.9258 43.7904C11.4072 43.9499 11.8864 44.0872 12.3611 44.2068C13.1198 44.3995 13.863 44.5435 14.5795 44.6521C16.2367 44.9024 17.7386 44.96 18.8855 44.96C20.5294 44.96 22.8987 44.8426 25.4099 44.2068C25.8847 44.0872 26.3639 43.9499 26.8453 43.7904C27.1159 43.6995 27.3865 43.6021 27.6594 43.498C27.2046 42.922 26.8342 42.2796 26.5635 41.5884C26.1487 40.5318 25.9623 39.3621 26.071 38.1394H26.0688Z" fill="#00BAC6"/>
<path d="M38.2835 36.1482C38.1349 35.8846 37.9596 35.6364 37.7666 35.4039C37.4294 34.994 37.0301 34.6374 36.5842 34.3428C35.9741 33.9396 35.2753 33.6583 34.5255 33.5342C34.4212 33.5165 34.3169 33.501 34.2105 33.4899C31.4862 33.1931 28.9217 35.014 28.3715 37.6944C28.1541 38.751 28.2517 39.7833 28.5912 40.6916C28.8485 41.3849 29.2456 42.0074 29.747 42.5302C30.2638 43.0707 30.8917 43.5027 31.5949 43.7907C31.6703 43.8217 31.7458 43.8505 31.8212 43.877C32.3869 44.0786 32.9948 44.1894 33.6292 44.1894C34.348 44.1894 35.0357 44.0476 35.6613 43.7907C36.4865 43.4539 37.2076 42.9179 37.7666 42.2422C38.5386 41.314 39 40.1223 39 38.8241C39 37.8494 38.7405 36.9368 38.2835 36.1482Z" fill="#00BAC6"/>
</svg>
